# xmcd CD database file
#
# Track frame offsets:
#	150
#	13560
#	27742
#	40002
#	54807
#	68263
#	81710
#	93312
#	108278
#	120921
#	134223
#	146970
#	158737
#	171752
#	184853
#	198120
#	211057
#	222882
#	238327
#	251768
#	262510
#	277100
#	286809
#	300821
#	312334
#	328314
#
# Disc length: 4562 seconds
#
# Revision: 0
# Processed by: cddbd v1.5.2PL0 Copyright (c) Steve Scherf et al.
# Submitted via: CDex 1.51
#
DISCID=7211d01a
DTITLE=Various (track 880-905) - Jazz In The Charts (41/100)
DYEAR=1900
DGENRE=Jazz
TTITLE0=(880.) Gene Krupa and His Orchestra: Fare The Well, Annie Laurie
TTITLE1=(881.) Larry Clinton and His Orchestra: If It Rains, Who Cares? 
TTITLE2=(882.) Tommy Dorsey and His Orchestra: Now It Can Be Told
TTITLE3=(883.) Benny Goodman and His Orchestra: [I've Been] Savin' Myself For You
TTITLE4=(884.) Louis Armstrong with The Mills Brothers: Flat Foot Floogie
TTITLE5=(885.) Tommy Dorsey and His Orchestra: I Hadn't Anyone Till You
TTITLE6=(886.) Benny Goodman and His Orchestra: Feelin' High And Happy
TTITLE7=(887.) Larry Clinton and His Orchestra: You Go To My Head
TTITLE8=(888.) Tommy Dorsey and His Orchestra: I'll Dream Tonight
TTITLE9=(889.) Wingy Manone and His Orchestra: The Flat Foot Floggie
TTITLE10=(890.) Jan Savitt and His Top Hatters: Hi-Yo Silver
TTITLE11=(891.) Slim and Slam: Tutti Frutti Today
TTITLE12=(892.) Count Basie and His Orchestra: Sent For You Yesterday [And Here You Come Today]
TTITLE13=(893.) Billie Holliday and Her Orchestra: You Go To My Head
TTITLE14=(894.) Benny Goodman and His Orchestra: What Goes On Here In My Heart
TTITLE15=(895.) Mildred Bailey and Her Orchestra: Small Fry
TTITLE16=(896.) Fats Waller and His Rhythm: There's Honey On The Moon Tonight
TTITLE17=(897.) Larry Clinton and His Orchestra: My Reverie
TTITLE18=(898.) Jimmy Dorsey and His Orchestra: There's A Faraway Look In Your Eyes
TTITLE19=(899.) Tommy Dorsey and His Orchestra: My Walking Stick
TTITLE20=(900.) Casa Loma Orchestra: You Go To My Head
TTITLE21=(901.) Billie Holliday and Her Orchestra: I'm Gonna Look My Heart (And Trow Away The Key)
TTITLE22=(902.) Tommy Dorsey and His Orchestra: Stop Beatin' Around The Mulberry Bush
TTITLE23=(903.) Tommy Dorsey and His Clambake Seven: A-Tisket, A-Tasket
TTITLE24=(904.) Benny Goodman and His Orchestra: Lullaby In Rhythm
TTITLE25=(905.) Artie Shaw and His Orchestra: Indian Love Call
EXTD=
EXTT0=
EXTT1=
EXTT2=
EXTT3=
EXTT4=
EXTT5=
EXTT6=
EXTT7=
EXTT8=
EXTT9=
EXTT10=
EXTT11=
EXTT12=
EXTT13=
EXTT14=
EXTT15=
EXTT16=
EXTT17=
EXTT18=
EXTT19=
EXTT20=
EXTT21=
EXTT22=
EXTT23=
EXTT24=
EXTT25=
PLAYORDER=
